<?xml version="1.0" encoding="iso-8859-1"?>
<!-- Uploaded to: SVG Repo, www.svgrepo.com, Generator: SVG Repo Mixer Tools -->
<svg height="800px" width="800px" version="1.1" id="Layer_1" xmlns="http://www.w3.org/2000/svg" xmlns:xlink="http://www.w3.org/1999/xlink" 
	 viewBox="0 0 512 512" xml:space="preserve">
<path style="fill:#D8FFFF;" d="M445.217,489.739H66.783c-24.588,0-44.522-19.934-44.522-44.522V66.783
	c0-24.588,19.933-44.522,44.522-44.522h378.435c24.588,0,44.522,19.933,44.522,44.522v378.435
	C489.739,469.806,469.806,489.739,445.217,489.739z"/>
<path style="fill:#FFFF81;" d="M189.217,94.609c0,52.251-42.358,94.609-94.609,94.609S0,146.859,0,94.609S42.358,0,94.609,0
	S189.217,42.358,189.217,94.609z"/>
<path style="fill:#FFF145;" d="M144.696,94.609c0,27.662-22.424,50.087-50.087,50.087s-50.087-22.424-50.087-50.087
	s22.424-50.087,50.087-50.087S144.696,66.946,144.696,94.609z"/>
<path style="fill:#C5EAD4;" d="M512,55.652L512,55.652c0,12.295-9.966,22.261-22.261,22.261h-33.391
	c-12.295,0-22.261-9.966-22.261-22.261l0,0c0-4.059,1.104-7.854,3.002-11.13H311.652c-12.295,0-22.261-9.966-22.261-22.261l0,0
	C289.391,9.966,299.357,0,311.652,0h144.696c12.295,0,22.261,9.966,22.261,22.261l0,0c0,4.059-1.104,7.854-3.002,11.13l0,0h14.132
	C502.034,33.391,512,43.357,512,55.652z"/>
<path style="fill:#BBF260;" d="M500.87,211.478V512H11.13V211.478h93.003c-9.248-8.159-15.09-20.089-15.09-33.391l0,0
	c0-20.745,14.189-38.176,33.391-43.119V116.87c0-21.515,17.441-38.957,38.957-38.957l0,0c21.515,0,38.957,17.441,38.957,38.957
	v18.098c19.202,4.942,33.391,22.373,33.391,43.119l0,0c0,13.302-5.841,25.233-15.09,33.391h74.7
	c-9.247-8.159-15.088-20.089-15.088-33.391l0,0c0-20.745,14.189-38.176,33.391-43.119V116.87c0-21.515,17.441-38.957,38.957-38.957
	l0,0c21.515,0,38.957,17.441,38.957,38.957v18.098c19.202,4.942,33.391,22.373,33.391,43.119l0,0
	c0,13.302-5.841,25.233-15.09,33.391H500.87z"/>
<path style="fill:#7F932A;" d="M233.739,178.087L233.739,178.087c0,24.588-19.933,44.522-44.522,44.522h-27.826l0,0h-27.826
	c-24.588,0-44.522-19.933-44.522-44.522l0,0c0-20.745,14.189-38.176,33.391-43.119V116.87c0-21.515,17.441-38.957,38.957-38.957l0,0
	c21.515,0,38.957,17.441,38.957,38.957v18.098C219.55,139.911,233.739,157.342,233.739,178.087z M389.565,134.968V116.87
	c0-21.515-17.441-38.957-38.957-38.957l0,0c-21.515,0-38.957,17.441-38.957,38.957v18.098
	c-19.202,4.942-33.391,22.373-33.391,43.119l0,0c0,24.588,19.933,44.522,44.522,44.522h27.826l0,0h27.826
	c24.588,0,44.522-19.933,44.522-44.522l0,0C422.957,157.342,408.767,139.911,389.565,134.968z"/>
<path style="fill:#9FBA41;" d="M144.696,256L144.696,256c0,24.588-19.933,44.522-44.522,44.522H72.348l0,0H44.522
	C19.933,300.522,0,280.588,0,256l0,0c0-20.745,14.189-38.176,33.391-43.119v-18.098c0-21.515,17.441-38.957,38.957-38.957l0,0
	c21.515,0,38.957,17.441,38.957,38.957v18.098C130.507,217.824,144.696,235.255,144.696,256z M294.957,212.881v-18.098
	c0-21.515-17.441-38.957-38.957-38.957l0,0c-21.515,0-38.957,17.441-38.957,38.957v18.098
	c-19.202,4.942-33.391,22.373-33.391,43.119l0,0c0,24.588,19.934,44.522,44.522,44.522H256l0,0h27.826
	c24.588,0,44.522-19.934,44.522-44.522l0,0C328.348,235.255,314.159,217.824,294.957,212.881z M478.609,212.881v-18.098
	c0-21.515-17.441-38.957-38.957-38.957l0,0c-21.515,0-38.957,17.441-38.957,38.957v18.098
	c-19.202,4.942-33.391,22.373-33.391,43.119l0,0c0,24.588,19.934,44.522,44.522,44.522h27.826l0,0h27.826
	C492.066,300.522,512,280.588,512,256l0,0C512,235.255,497.811,217.824,478.609,212.881z"/>
<path style="fill:#FF7039;" d="M55.652,205.913c0,15.368-12.458,27.826-27.826,27.826S0,221.281,0,205.913
	s12.458-27.826,27.826-27.826S55.652,190.545,55.652,205.913z M294.957,178.087c-15.368,0-27.826,12.458-27.826,27.826
	s12.458,27.826,27.826,27.826s27.826-12.458,27.826-27.826S310.324,178.087,294.957,178.087z M484.174,178.087
	c-15.368,0-27.826,12.458-27.826,27.826s12.458,27.826,27.826,27.826S512,221.281,512,205.913S499.542,178.087,484.174,178.087z"/>
<path style="fill:#FF8950;" d="M32.918,178.56c0.305,1.652,0.473,3.352,0.473,5.092c0,15.368-12.458,27.826-27.826,27.826
	c-1.74,0-3.44-0.168-5.092-0.473C0.168,209.353,0,207.653,0,205.913c0-15.368,12.458-27.826,27.826-27.826
	C29.566,178.087,31.267,178.255,32.918,178.56z M294.957,178.087c-15.368,0-27.826,12.458-27.826,27.826
	c0,1.74,0.168,3.44,0.473,5.092c1.652,0.306,3.351,0.473,5.092,0.473c15.368,0,27.826-12.458,27.826-27.826
	c0-1.74-0.168-3.44-0.473-5.092C298.397,178.255,296.696,178.087,294.957,178.087z M489.266,178.56
	c-1.652-0.305-3.353-0.473-5.092-0.473c-15.368,0-27.826,12.458-27.826,27.826c0,1.74,0.168,3.44,0.473,5.092
	c1.652,0.306,3.351,0.473,5.092,0.473c15.368,0,27.826-12.458,27.826-27.826C489.739,181.912,489.571,180.212,489.266,178.56z"/>
<path style="fill:#A07040;" d="M80.696,256v100.174c0,4.61-3.738,8.348-8.348,8.348S64,360.784,64,356.174V256
	c0-4.61,3.738-8.348,8.348-8.348S80.696,251.39,80.696,256z M256,247.652c-4.61,0-8.348,3.738-8.348,8.348v100.174
	c0,4.61,3.738,8.348,8.348,8.348s8.348-3.738,8.348-8.348V256C264.348,251.39,260.61,247.652,256,247.652z M439.652,247.652
	c-4.61,0-8.348,3.738-8.348,8.348v100.174c0,4.61,3.738,8.348,8.348,8.348s8.348-3.738,8.348-8.348V256
	C448,251.39,444.262,247.652,439.652,247.652z"/>
<path style="fill:#FFAF4A;" d="M27.826,389.565v114.087c0,4.61-3.738,8.348-8.348,8.348s-8.348-3.738-8.348-8.348V389.565
	c0-4.61,3.738-8.348,8.348-8.348S27.826,384.955,27.826,389.565z M137.739,381.217c-4.61,0-8.348,3.738-8.348,8.348v114.087
	c0,4.61,3.738,8.348,8.348,8.348c4.61,0,8.348-3.738,8.348-8.348V389.565C146.087,384.955,142.349,381.217,137.739,381.217z
	 M78.609,381.217c-4.61,0-8.348,3.738-8.348,8.348v114.087c0,4.61,3.738,8.348,8.348,8.348c4.61,0,8.348-3.738,8.348-8.348V389.565
	C86.957,384.955,83.219,381.217,78.609,381.217z M196.87,381.217c-4.61,0-8.348,3.738-8.348,8.348v114.087
	c0,4.61,3.738,8.348,8.348,8.348c4.61,0,8.348-3.738,8.348-8.348V389.565C205.217,384.955,201.48,381.217,196.87,381.217z
	 M256,381.217c-4.61,0-8.348,3.738-8.348,8.348v114.087c0,4.61,3.738,8.348,8.348,8.348s8.348-3.738,8.348-8.348V389.565
	C264.348,384.955,260.61,381.217,256,381.217z M315.13,381.217c-4.61,0-8.348,3.738-8.348,8.348v114.087
	c0,4.61,3.738,8.348,8.348,8.348c4.61,0,8.348-3.738,8.348-8.348V389.565C323.478,384.955,319.741,381.217,315.13,381.217z
	 M374.261,381.217c-4.61,0-8.348,3.738-8.348,8.348v114.087c0,4.61,3.738,8.348,8.348,8.348c4.61,0,8.348-3.738,8.348-8.348V389.565
	C382.609,384.955,378.871,381.217,374.261,381.217z M433.391,381.217c-4.61,0-8.348,3.738-8.348,8.348v114.087
	c0,4.61,3.738,8.348,8.348,8.348c4.61,0,8.348-3.738,8.348-8.348V389.565C441.739,384.955,438.001,381.217,433.391,381.217z
	 M492.522,381.217c-4.61,0-8.348,3.738-8.348,8.348v114.087c0,4.61,3.738,8.348,8.348,8.348c4.61,0,8.348-3.738,8.348-8.348V389.565
	C500.87,384.955,497.132,381.217,492.522,381.217z"/>
<path style="fill:#D3842F;" d="M512,422.957c0,4.61-3.738,8.348-8.348,8.348H8.348c-4.61,0-8.348-3.738-8.348-8.348
	c0-4.61,3.738-8.348,8.348-8.348h495.304C508.262,414.609,512,418.346,512,422.957z"/>
<g>
	<path style="fill:#9FBA41;" d="M512,503.652c0,4.61-3.738,8.348-8.348,8.348H8.348C3.738,512,0,508.262,0,503.652
		s3.738-8.348,8.348-8.348h495.304C508.262,495.304,512,499.042,512,503.652z"/>
	<path style="fill:#9FBA41;" d="M144.696,356.174c0,4.61-3.738,8.348-8.348,8.348H47.304c-4.61,0-8.348-3.738-8.348-8.348
		s3.738-8.348,8.348-8.348h89.043C140.958,347.826,144.696,351.564,144.696,356.174z M314.435,347.826h-89.043
		c-4.61,0-8.348,3.738-8.348,8.348s3.738,8.348,8.348,8.348h89.043c4.61,0,8.348-3.738,8.348-8.348S319.045,347.826,314.435,347.826
		z M503.652,347.826h-89.043c-4.61,0-8.348,3.738-8.348,8.348s3.738,8.348,8.348,8.348h89.043c4.61,0,8.348-3.738,8.348-8.348
		S508.262,347.826,503.652,347.826z"/>
</g>
</svg>