<?xml version="1.0" encoding="UTF-8"?>
<svg version="1.1" xmlns="http://www.w3.org/2000/svg" width="512" height="512">
<path d="M0 0 C1.1376329 -0.0065712 2.27526581 -0.0131424 3.44737244 -0.01991272 C7.19155962 -0.03953661 10.93570699 -0.05128088 14.67993164 -0.0612793 C15.96320406 -0.06535482 17.24647648 -0.06943035 18.56863594 -0.07362938 C24.65709809 -0.0922995 30.74554049 -0.10687964 36.83402532 -0.11524135 C43.83581011 -0.12502005 50.83727933 -0.15137536 57.83895296 -0.19174224 C63.92689103 -0.22562505 70.01469698 -0.23739263 76.10272408 -0.24144554 C78.68264476 -0.24630979 81.2625621 -0.25791906 83.84242058 -0.27648354 C87.45379641 -0.30086622 91.06434807 -0.29991151 94.67578125 -0.29296875 C96.26347321 -0.31218384 96.26347321 -0.31218384 97.88323975 -0.33178711 C105.18634435 -0.2807532 111.79971179 0.77038183 117.28451443 5.95641613 C122.99410689 12.27167161 123.91399193 17.1823629 123.78149414 25.6887207 C123.09136994 32.04213218 120.0630634 35.84224601 115.46508789 40.05200195 C108.92274947 44.59158371 102.77280768 44.46221959 95.07983398 44.43237305 C93.38105103 44.43780373 93.38105103 44.43780373 91.64794922 44.44334412 C89.19259826 44.45022816 86.73723203 44.45274542 84.2818718 44.45139694 C80.38821874 44.45043006 76.49484051 44.46339489 72.60122681 44.4803772 C61.5319489 44.52725948 50.4626834 44.55132157 39.39331055 44.55786133 C32.61706391 44.56203355 25.84111042 44.58721892 19.06496048 44.62318802 C16.4903498 44.63295398 13.9156996 44.63533558 11.3410759 44.63001633 C7.72764539 44.62290298 4.1150598 44.64031805 0.50170898 44.6628418 C-0.54910858 44.65466934 -1.59992615 44.64649689 -2.68258667 44.63807678 C-14.43539713 44.76753204 -24.71649391 48.38888305 -33.59741211 56.17700195 C-40.80658591 63.62140792 -45.70853142 73.36207732 -45.73163319 83.85236359 C-45.73609103 84.7934442 -45.74054887 85.73452481 -45.7451418 86.70412302 C-45.74495744 87.73484226 -45.74477308 88.76556149 -45.74458313 89.82751465 C-45.74825982 90.9250247 -45.75193651 92.02253474 -45.75572461 93.15330267 C-45.76676925 96.84414983 -45.77060665 100.53496885 -45.77441406 104.22583008 C-45.78067819 106.86701627 -45.7873122 109.50819946 -45.79432678 112.14938354 C-45.81407875 120.08554828 -45.82415667 128.02171426 -45.83305457 135.95789742 C-45.83744033 139.69806263 -45.84280646 143.43822642 -45.84804344 147.1783905 C-45.86505591 159.61714636 -45.87954847 172.05590135 -45.88679218 184.49466705 C-45.88870199 187.72178651 -45.89062233 190.94890596 -45.89257812 194.17602539 C-45.89330374 195.37910978 -45.89330374 195.37910978 -45.894044 196.6064989 C-45.90233827 209.58943366 -45.92766488 222.57227611 -45.9601588 235.5551706 C-45.99327048 248.8940234 -46.01124473 262.23282936 -46.01443642 275.57172346 C-46.01659793 283.05707492 -46.02529353 290.54229183 -46.0508976 298.02760315 C-46.07266099 304.40474081 -46.08062752 310.78171125 -46.07093082 317.15888184 C-46.06640203 320.40907315 -46.07039428 323.6588497 -46.08769226 326.90900803 C-46.10544433 330.44316637 -46.0982876 333.97646029 -46.0851593 337.51062012 C-46.09612855 338.52349358 -46.10709779 339.53636704 -46.11839944 340.57993364 C-46.01484112 352.18911791 -42.27599222 362.42099261 -34.59741211 371.17700195 C-27.15300615 378.38617576 -17.41233674 383.28812126 -6.92205048 383.31122303 C-5.51042956 383.3179098 -5.51042956 383.3179098 -4.07029104 383.32473165 C-3.03957181 383.32454729 -2.00885257 383.32436292 -0.94689941 383.32417297 C0.69936566 383.32968801 0.69936566 383.32968801 2.37888861 383.33531445 C6.06973577 383.34635909 9.76055479 383.3501965 13.45141602 383.35400391 C16.09260221 383.36026804 18.73378539 383.36690204 21.37496948 383.37391663 C29.31113421 383.39366859 37.2473002 383.40374651 45.18348336 383.41264442 C48.92364856 383.41703017 52.66381235 383.42239631 56.40397644 383.42763329 C68.8427323 383.44464576 81.28148729 383.45913832 93.72025299 383.46638203 C96.94737245 383.46829183 100.1744919 383.47021217 103.40161133 383.47216797 C104.20366759 383.47265171 105.00572384 383.47313545 105.83208483 383.47363385 C118.8150196 383.48192812 131.79786205 383.50725473 144.78075653 383.53974865 C158.11960933 383.57286033 171.4584153 383.59083457 184.7973094 383.59402627 C192.28266086 383.59618777 199.76787777 383.60488337 207.25318909 383.63048744 C213.63032675 383.65225084 220.00729719 383.66021736 226.38446778 383.65052066 C229.63465909 383.64599187 232.88443564 383.64998413 236.13459396 383.6672821 C239.6687523 383.68503417 243.20204623 383.67787744 246.73620605 383.66474915 C247.74907952 383.67571839 248.76195298 383.68668764 249.80551958 383.69798928 C261.41470385 383.59443096 271.64657855 379.85558207 280.40258789 372.17700195 C287.70041156 364.64105352 292.5183038 354.87338665 292.53388977 344.27680969 C292.53789795 343.2914473 292.54190613 342.3060849 292.54603577 341.29086304 C292.54550705 340.2159964 292.54497833 339.14112976 292.54443359 338.03369141 C292.54790802 336.89664261 292.55138245 335.75959381 292.55496216 334.58808899 C292.5623161 332.11741437 292.56766341 329.64673315 292.57125282 327.17605019 C292.57842015 323.26242852 292.59408943 319.34893209 292.6125946 315.43534851 C292.61893176 314.09334665 292.62525739 312.75134473 292.63157177 311.40934277 C292.63473758 310.73730922 292.63790339 310.06527568 292.64116514 309.37287748 C292.68316669 300.26569088 292.71619594 291.15854653 292.72851562 282.05126953 C292.73781722 275.24490339 292.767965 268.43886175 292.80983543 261.63261986 C292.8221334 259.04158091 292.82726891 256.45049749 292.825037 253.85943031 C292.82267914 250.22837485 292.8448899 246.59821889 292.87255859 242.96728516 C292.86595718 241.90253967 292.85935577 240.83779419 292.85255432 239.74078369 C292.94371955 232.43257961 293.99062786 225.78552591 299.18176746 220.29532337 C305.49707413 214.58555306 310.4077902 213.66559545 318.91430664 213.7980957 C325.26771811 214.48821991 329.06783195 217.51652644 333.27758789 222.11450195 C337.79795807 228.62915309 337.6952362 234.75859773 337.67724609 242.42041016 C337.68491249 244.10714592 337.68491249 244.10714592 337.69273376 245.82795715 C337.70662789 249.54462011 337.7056718 253.26109736 337.70336914 256.9777832 C337.70725873 259.57407194 337.71159395 262.17036005 337.71635437 264.76664734 C337.72381811 270.21473518 337.72366512 275.66275163 337.71826172 281.11083984 C337.71225191 287.36594121 337.7244582 293.62081593 337.74583179 299.87587863 C337.76574493 305.93069151 337.76860016 311.98540052 337.76509666 318.04024315 C337.7656063 320.5967887 337.77077605 323.15333814 337.78090858 325.70986366 C337.88101879 354.52443602 334.18973116 378.86963734 314.40258789 401.17700195 C313.48026367 402.24241211 313.48026367 402.24241211 312.53930664 403.3293457 C298.93054429 418.04545917 278.0842933 426.4569941 258.40258789 428.17700195 C254.70285289 428.31674919 251.0067736 428.32060218 247.30470276 428.31744385 C246.20730284 428.32041497 245.10990292 428.32338609 243.97924846 428.32644725 C240.31249248 428.33509894 236.64576928 428.33663952 232.97900391 428.33813477 C230.34534046 428.34276551 227.71167992 428.3477704 225.07801819 428.35317993 C217.92881983 428.36672516 210.77962711 428.37278232 203.63041806 428.37719059 C199.15907184 428.37996008 194.68772775 428.38419876 190.21638298 428.38869476 C177.81607607 428.40088361 165.41577087 428.41118293 153.01545811 428.41456985 C152.22276059 428.41478942 151.43006308 428.41500899 150.61334443 428.41523521 C149.81883608 428.41545348 149.02432773 428.41567176 148.20574337 428.41589665 C146.59598386 428.41634011 144.98622435 428.41678667 143.37646484 428.41723633 C142.57798214 428.41745776 141.77949945 428.41767919 140.9568203 428.41790733 C128.03573447 428.42185035 115.1147052 428.43929094 102.19364119 428.46259585 C88.90096773 428.48637573 75.60832257 428.49877475 62.31562752 428.49993777 C54.86317895 428.50085094 47.41080406 428.50651201 39.95837593 428.52475739 C33.60894428 428.54024842 27.25960908 428.54522636 20.9101621 428.53701928 C17.67761737 428.533144 14.44530449 428.53555929 11.21277618 428.54807663 C-17.34591172 428.65211279 -41.50758814 424.77118169 -63.59741211 405.17700195 C-64.66282227 404.25467773 -64.66282227 404.25467773 -65.74975586 403.3137207 C-80.32329212 389.83680698 -88.35484212 369.56311148 -90.59741211 350.17700195 C-90.74123715 346.48999467 -90.74096672 342.8061884 -90.737854 339.11671448 C-90.74082513 338.01129631 -90.74379625 336.90587815 -90.7468574 335.76696247 C-90.75552087 332.06712743 -90.75705068 328.36732484 -90.75854492 324.66748047 C-90.76317484 322.01263783 -90.76817951 319.35779809 -90.77359009 316.70295715 C-90.78714449 309.49178522 -90.79319399 302.28061886 -90.79760075 295.06943631 C-90.80036883 290.5604136 -90.80460727 286.05139302 -90.80910492 281.54237175 C-90.82129524 269.04087871 -90.83159409 256.53938738 -90.83498001 244.03788853 C-90.83519958 243.23846911 -90.83541914 242.43904969 -90.83564536 241.61540544 C-90.83586364 240.81414363 -90.83608192 240.01288183 -90.83630681 239.18733937 C-90.83675027 237.56385775 -90.83719683 235.94037614 -90.83764648 234.31689453 C-90.83786791 233.51160279 -90.83808934 232.70631105 -90.83831748 231.87661653 C-90.84226063 218.84486083 -90.85970094 205.81316121 -90.88300601 192.78142715 C-90.9067787 179.37917899 -90.9191846 165.9769589 -90.92034793 152.57468933 C-90.92126152 145.05910081 -90.92693359 137.54358533 -90.94516754 130.02801704 C-90.96064883 123.62473402 -90.96564217 117.2215466 -90.95742944 110.8182484 C-90.9535507 107.55748144 -90.95598241 104.2969446 -90.96848679 101.03619385 C-91.06756213 73.57552292 -87.40580027 49.55807167 -68.59741211 28.17700195 C-67.9309668 27.41516602 -67.26452148 26.65333008 -66.57788086 25.8684082 C-49.26817621 7.33835332 -24.73605706 0.06271927 0 0 Z " fill="#000000" transform="translate(132.597412109375,41.822998046875)"/>
<path d="M0 0 C1.13826233 -0.00571014 2.27652466 -0.01142029 3.44927979 -0.01730347 C4.69403076 -0.01842133 5.93878174 -0.01953918 7.22125244 -0.02069092 C8.5354718 -0.02565582 9.84969116 -0.03062073 11.20373535 -0.03573608 C14.80722601 -0.04883914 18.41069804 -0.05530109 22.01420879 -0.05974674 C24.26763597 -0.06268119 26.5210581 -0.06678673 28.77448273 -0.07125092 C35.83098315 -0.08492109 42.887472 -0.09458977 49.94398475 -0.09845281 C58.07829072 -0.10293082 66.21242844 -0.1204687 74.34668326 -0.1494534 C80.64153248 -0.17110185 86.93633446 -0.18115879 93.23122048 -0.18249393 C96.98738089 -0.1835398 100.74338302 -0.18940101 104.49950409 -0.20731354 C108.03556809 -0.22384884 111.57135577 -0.22592351 115.10744476 -0.21717453 C117.01433835 -0.21604276 118.92122298 -0.2297184 120.82806396 -0.243927 C129.55858533 -0.20163048 136.93812384 0.66883673 143.409729 7.14044189 C147.19224787 12.60975972 148.53041266 17.16270786 148.5501709 23.73071289 C148.55588104 24.86897522 148.56159119 26.00723755 148.56747437 27.17999268 C148.56915115 29.04711914 148.56915115 29.04711914 148.57086182 30.95196533 C148.57582672 32.26618469 148.58079163 33.58040405 148.58590698 34.93444824 C148.59901004 38.5379389 148.60547199 42.14141094 148.60991764 45.74492168 C148.61285209 47.99834886 148.61695763 50.25177099 148.62142181 52.50519562 C148.63509199 59.56169604 148.64476067 66.61818489 148.6486237 73.67469764 C148.65310172 81.80900361 148.67063959 89.94314133 148.6996243 98.07739615 C148.72127275 104.37224537 148.73132969 110.66704735 148.73266482 116.96193337 C148.7337107 120.71809378 148.7395719 124.47409591 148.75748444 128.23021698 C148.77401974 131.76628098 148.77609441 135.30206866 148.76734543 138.83815765 C148.76621366 140.74505124 148.7798893 142.65193587 148.7940979 144.55877686 C148.75605364 152.41157985 148.33498181 158.66176288 143.097229 164.89044189 C136.89545155 170.08262767 132.68017069 172.4801319 124.56207275 172.35919189 C118.70869694 171.76429344 113.56042092 169.29113382 109.409729 165.14044189 C105.16119263 158.99728795 104.26411401 153.9381552 104.20440674 146.61798096 C104.19450714 145.86637192 104.18460754 145.11476288 104.17440796 144.34037781 C104.14288435 141.86230594 104.11807178 139.38421491 104.09332275 136.90606689 C104.07274533 135.18541981 104.05174865 133.46477769 104.03034973 131.74414062 C103.97521049 127.21997098 103.92576534 122.69575632 103.87750244 118.17150879 C103.82722787 113.5530396 103.77157291 108.93463559 103.71636963 104.31622314 C103.60888773 95.25768511 103.50742069 86.19909043 103.409729 77.14044189 C102.23800896 78.31631001 102.23800896 78.31631001 101.0426178 79.51593304 C82.02990315 98.59526441 63.00852854 117.66592826 43.97805786 136.72754955 C34.7752458 145.94582644 25.57526174 155.16689282 16.38189697 164.39459229 C8.36839 172.4380132 0.34961275 180.47613595 -7.6755209 188.50795728 C-11.9240493 192.76039451 -16.16990292 197.01542677 -20.40945435 201.27681541 C-24.40180454 205.28956206 -28.40117639 209.29517459 -32.40598869 213.29548264 C-33.87269564 214.76301335 -35.33684309 216.23310741 -36.79818916 217.70597649 C-38.79847692 219.72125731 -40.80789136 221.72699051 -42.81976318 223.73069763 C-43.39177554 224.31144851 -43.9637879 224.8921994 -44.55313396 225.49054879 C-50.6582946 231.52927143 -56.62223317 235.80923937 -65.340271 236.39044189 C-71.2376818 236.29160261 -75.8301886 234.62051118 -80.340271 230.82794189 C-85.5192276 224.64196595 -87.98416937 220.38989719 -87.78948975 212.27325439 C-86.47475388 198.19784693 -70.51753231 186.92825125 -61.07440186 177.51104736 C-59.62460186 176.06152995 -58.17502303 174.61179129 -56.72564697 173.16184998 C-52.81738272 169.2533005 -48.9060576 165.34782744 -44.99414897 161.44292593 C-40.89642256 157.35147906 -36.801555 153.25717293 -32.70637512 149.16317749 C-24.96320944 141.42311161 -17.21749968 133.68559693 -9.47085816 125.94901001 C-0.64658296 117.13593803 8.17483029 108.32000374 16.99601185 99.50383544 C35.13074916 81.37953191 53.269053 63.25880122 71.409729 45.14044189 C69.98938354 45.13164253 69.98938354 45.13164253 68.54034424 45.12266541 C59.59525626 45.06533009 50.65040886 44.99251234 41.70556641 44.90472698 C37.10746022 44.86009326 32.50944121 44.82082187 27.91119385 44.79400635 C23.4695344 44.76790335 19.02821167 44.7274519 14.58676147 44.67725563 C12.89643559 44.66063409 11.20605152 44.64909056 9.51565552 44.64282799 C7.13884592 44.63313522 4.76288866 44.60501604 2.3862915 44.57281494 C1.69504684 44.57425003 1.00380219 44.57568512 0.29161072 44.5771637 C-6.88428071 44.44061167 -13.44306123 42.28765166 -18.590271 37.14044189 C-22.82558163 31.01641165 -24.34515962 25.56800676 -23.590271 18.14044189 C-22.17459113 12.48813182 -19.84229897 7.38950797 -14.918396 3.98419189 C-9.77246905 0.90543219 -5.90939657 0.01777698 0 0 Z " fill="#000000" transform="translate(321.59027099609375,41.85955810546875)"/>
</svg>
