<svg id="Layer_1" data-name="Layer 1" xmlns="http://www.w3.org/2000/svg" viewBox="0 0 122.88 122.88"><defs><style>.cls-1{fill:#1195cf;}</style></defs><title>sony-vegas</title><path class="cls-1" d="M4.31,4.31q0,57.12,0,114.26,57.12,0,114.26,0,0-57.13,0-114.26ZM0,0H122.88V122.88H0V0Z"/><path class="cls-1" d="M28.21,27.29c2.72,0,5.44,0,8.16,0,.64,0,1.29,0,1.93,0q9.23,25.11,18.49,50.21c1,2.73,1.94,5.48,2.78,8.27.24.72.42,1.47.68,2.19,1.47-5.32,3.49-10.47,5.47-15.62L83,27.3c3.18,0,6.36,0,9.53,0L65,95.58c-3.18,0-6.36,0-9.54,0q-6.07-15.14-12.1-30.31-7.5-18.8-15-37.59c-.05-.13-.1-.27-.14-.4Z"/><path d="M28.21,27.29c0,.13.09.27.14.4q7.49,18.79,15,37.59,6.06,15.16,12.1,30.31c3.18,0,6.36,0,9.54,0L92.5,27.29c-3.17,0-6.35,0-9.53,0L65.72,72.36c-2,5.15-4,10.3-5.47,15.62-.26-.72-.44-1.47-.68-2.19-.84-2.79-1.78-5.54-2.78-8.27Q47.55,52.41,38.3,27.31c-.64-.06-1.29,0-1.93,0-2.72,0-5.44,0-8.16,0Zm-23.9-23H118.57q0,57.12,0,114.26-57.13,0-114.26,0,0-57.13,0-114.26Z"/></svg>