<svg xmlns="http://www.w3.org/2000/svg" viewBox="0 0 512.47 499.66"><defs><style>.a{fill:#00005b;}.b{fill:#99f;}</style></defs><title>adobe-after-effects</title><rect class="a" width="512.47" height="499.66" rx="90.75"/><path class="b" d="M205.88,298.94H126.46L110.3,349.23a4,4,0,0,1-4.12,3.1H66c-2.29,0-3.09-1.27-2.4-3.79l68.76-197.2c.68-2.06,1.37-4.08,2.06-6.71a73.17,73.17,0,0,0,1.37-13.93,2.13,2.13,0,0,1,1.81-2.4,2,2,0,0,1,.6,0h54.66c1.6,0,2.52.57,2.75,1.72l78,218.87q1,3.44-2.06,3.44H226.85a3.19,3.19,0,0,1-3.44-2.41Zm-67-42.4h54.32q-2.07-6.87-4.82-15.47t-5.84-18.39l-6.19-19.6q-3.09-9.79-5.67-18.91T166,167.5h-.35a274.49,274.49,0,0,1-7.22,27.5q-4.81,15.48-9.8,31.63T138.84,256.54Z"/><path class="b" d="M400.12,279.37H332.39a48.27,48.27,0,0,0,6.53,18.94,35.4,35.4,0,0,0,15.64,12.89,65.36,65.36,0,0,0,27.34,5.36,123.33,123.33,0,0,0,22.17-2.44,81.58,81.58,0,0,0,19.06-5q1.72-1.36,1.72,1.72v32.66a4.15,4.15,0,0,1-2.06,4.13,87.51,87.51,0,0,1-21.3,6.34,150.47,150.47,0,0,1-30.25,2.58q-24.42,0-40.91-7.56a73,73,0,0,1-26.82-20.28,79.6,79.6,0,0,1-14.78-28,110.41,110.41,0,0,1-4.47-31.12,108.47,108.47,0,0,1,5.33-33.86,88.5,88.5,0,0,1,16-29.22,76.76,76.76,0,0,1,25.79-20.28c10.08-4.93,22-6.7,35.75-6.7a77.73,77.73,0,0,1,33.18,6.54,58.37,58.37,0,0,1,22.51,17,78,78,0,0,1,12.72,24.24,86.45,86.45,0,0,1,4.13,26.13q0,7.56-.52,13.75c-.34,4.12-.63,7.1-.85,8.94a3.13,3.13,0,0,1-3.1,2.75q-2.06,0-7.05.51c-3.32.35-7.45.57-12.37.69S405.62,279.37,400.12,279.37Zm-67.73-31.32h45q8.25,0,12.2-.17a12.13,12.13,0,0,0,5-1.65v-2.07a27.6,27.6,0,0,0-1.38-7.9,28.08,28.08,0,0,0-27.85-19.6A29.88,29.88,0,0,0,337,232.82,49.88,49.88,0,0,0,332.39,248.05Z"/></svg>