<?xml version="1.0" encoding="utf-8"?><!-- Uploaded to: SVG Repo, www.svgrepo.com, Generator: SVG Repo Mixer Tools -->
<svg version="1.1" id="Uploaded to svgrepo.com" xmlns="http://www.w3.org/2000/svg" xmlns:xlink="http://www.w3.org/1999/xlink" 
	 width="800px" height="800px" viewBox="0 0 32 32" xml:space="preserve">
<style type="text/css">
	.stone_een{fill:#0B1719;}
</style>
<path class="stone_een" d="M27.314,16L16,4.686c-1.562-1.562-3.609-2.343-5.657-2.343c-2.047,0-4.095,0.781-5.657,2.343
	c-3.124,3.124-3.124,8.19,0,11.314L16,27.314c1.562,1.562,3.609,2.343,5.657,2.343s4.094-0.78,5.657-2.343
	C30.454,24.173,30.438,19.124,27.314,16z M11,15c0-0.552,0.448-1,1-1c0.552,0,1,0.448,1,1c0,0.552-0.448,1-1,1
	C11.448,16,11,15.552,11,15z M13,20c-0.552,0-1-0.448-1-1c0-0.552,0.448-1,1-1c0.552,0,1,0.448,1,1C14,19.552,13.552,20,13,20z
	 M14,12c0-0.552,0.448-1,1-1s1,0.448,1,1c0,0.552-0.448,1-1,1S14,12.552,14,12z M16,17c-0.552,0-1-0.448-1-1c0-0.552,0.448-1,1-1
	c0.552,0,1,0.448,1,1C17,16.552,16.552,17,16,17z M17,21c-0.552,0-1-0.448-1-1c0-0.552,0.448-1,1-1c0.552,0,1,0.448,1,1
	C18,20.552,17.552,21,17,21z M18,13c0-0.552,0.448-1,1-1c0.552,0,1,0.448,1,1c0,0.552-0.448,1-1,1C18.448,14,18,13.552,18,13z
	 M20,18c-0.552,0-1-0.448-1-1c0-0.552,0.448-1,1-1c0.552,0,1,0.448,1,1C21,17.552,20.552,18,20,18z"/>
</svg>