<?xml version="1.0" encoding="iso-8859-1"?>
<!-- Uploaded to: SVG Repo, www.svgrepo.com, Generator: SVG Repo Mixer Tools -->
<svg height="800px" width="800px" version="1.1" id="Layer_1" xmlns="http://www.w3.org/2000/svg" xmlns:xlink="http://www.w3.org/1999/xlink" 
	 viewBox="0 0 512 512" xml:space="preserve">
<path style="fill:#34B772;" d="M317.217,166.957h-66.783c-9.223,0-16.696-7.473-16.696-16.696V83.478
	C233.739,37.446,271.185,0,317.217,0h66.783c9.223,0,16.696,7.473,16.696,16.696v66.783
	C400.695,129.51,363.249,166.957,317.217,166.957z"/>
<path style="fill:#7CCC92;" d="M183.652,166.957h-66.783c-46.032,0-83.478-37.446-83.478-83.478V16.696
	C33.391,7.473,40.864,0,50.086,0h66.783c46.032,0,83.478,37.446,83.478,83.478v66.783
	C200.347,159.484,192.874,166.957,183.652,166.957z"/>
<path style="fill:#DDDD47;" d="M329.015,95.277l-80.584,80.584c-9.462,9.461-14.692,22.038-14.692,35.506v39.068
	c0,9.238-7.456,16.696-16.696,16.696s-16.696-7.457-16.696-16.696v-39.068c0-13.468-5.231-26.045-14.693-35.506L105.07,95.277
	c-6.567-6.456-6.567-17.141,0-23.597c6.568-6.567,17.03-6.567,23.598,0l80.584,80.584c2.894,2.894,5.454,5.899,7.791,9.127
	c2.337-3.228,4.896-6.233,7.791-9.127l80.584-80.584c6.568-6.567,17.03-6.567,23.598,0
	C335.582,78.136,335.582,88.821,329.015,95.277z"/>
<path style="fill:#C7D100;" d="M329.015,95.277l-80.584,80.584c-9.462,9.461-14.692,22.038-14.692,35.506v39.068
	c0,9.238-7.456,16.696-16.696,16.696V161.391c2.337-3.228,4.896-6.233,7.791-9.127l80.584-80.584c6.568-6.567,17.03-6.567,23.598,0
	C335.582,78.136,335.582,88.821,329.015,95.277z"/>
<path style="fill:#91867E;" d="M343.596,282.268l-10.686,80.918l-115.867,1.113l-146.475,1.336l-0.78-54.65
	c13.244-37.176,73.237-77.245,147.256-77.245C282.155,233.739,330.35,270.803,343.596,282.268z"/>
<path style="fill:#847976;" d="M343.596,282.268l-10.686,80.918l-115.867,1.113v-130.56
	C282.155,233.739,330.35,270.803,343.596,282.268z"/>
<path style="fill:#F1CD99;" d="M411.826,302.303v176.306H150.26c-13.133,0-26.046-5.343-35.394-14.692L14.693,363.743
	c-19.59-19.478-19.59-51.311,0-70.79c19.478-19.59,51.31-19.59,70.788,0l51.423,51.311c7.122-18.922,25.266-32.612,46.748-32.612
	h43.075c7.346,0,17.92-1.336,26.157-7.457C299.63,269.69,365.412,270.136,411.826,302.303z"/>
<path style="fill:#F0C78D;" d="M411.826,302.303v176.306H217.043V311.652h9.683c7.346,0,17.92-1.336,26.157-7.457
	C299.63,269.69,365.412,270.136,411.826,302.303z"/>
<path style="fill:#F5DDB3;" d="M272.806,331.13c-12.355,9.127-28.271,13.913-46.08,13.913h-43.075
	c-9.239,0-16.696,7.457-16.696,16.696s7.456,16.696,16.696,16.696h133.565c9.239,0,16.696,7.457,16.696,16.696
	c0,9.238-7.456,16.696-16.696,16.696H164.062c-4.451,0-8.682-1.781-11.799-4.897L61.885,316.55c-6.457-6.567-17.141-6.567-23.598,0
	c-6.567,6.567-6.567,17.03,0,23.597L138.461,440.32c3.117,3.117,7.457,4.897,11.799,4.897h250.435V335.694
	C366.079,305.864,310.205,303.416,272.806,331.13z"/>
<path style="fill:#F3D3A6;" d="M400.695,335.694v109.523H217.043v-33.391h100.174c9.239,0,16.696-7.457,16.696-16.696
	c0-9.238-7.456-16.696-16.696-16.696H217.043v-33.391h9.683c17.809,0,33.725-4.786,46.08-13.913
	C310.205,303.416,366.079,305.864,400.695,335.694z"/>
<path style="fill:#FF0C38;" d="M495.304,512h-77.913c-9.217,0-16.696-7.473-16.696-16.696V294.957
	c0-9.223,7.479-16.696,16.696-16.696h77.913c9.217,0,16.696,7.473,16.696,16.696v200.348C511.999,504.527,504.521,512,495.304,512z"
	/>
</svg>