<?xml version="1.0" encoding="utf-8"?>
<!-- Uploaded to: SVG Repo, www.svgrepo.com, Generator: SVG Repo Mixer Tools -->
<svg fill="#000000" version="1.1" id="Layer_1" xmlns="http://www.w3.org/2000/svg" xmlns:xlink="http://www.w3.org/1999/xlink" 
	 width="800px" height="800px" viewBox="0 0 248 256" enable-background="new 0 0 248 256" xml:space="preserve">
<path d="M118,31v194l128,29V2L118,31z M130,40.59l104-23.57v221.96l-104-23.57V40.59z M2,30v224h39v-30h12
	c18.085,0,31.965-15.162,31.965-33.346v-19.666h14.033c3.755,0,6.72-2.965,6.72-6.621c0-0.889-0.099-1.779-0.494-2.569
	l-19.468-47.435c0,0-1.779-18.085-3.36-25.002C75.181,58.132,40.751,30,3,30C2.704,30,2.988,30,2,30z M54.824,116.635
	c0-4.941,3.953-8.894,8.894-8.894s8.894,3.953,8.894,8.894c0,4.941-3.953,8.894-8.894,8.894S54.824,121.576,54.824,116.635z
	 M225.363,129.166C225.268,104.991,203,86.248,177.23,88.311c-23.574,1.887-41.07,19.963-40.862,41.006
	c0.069,20.604,17.51,39.355,41.024,40.879C202.514,171.899,225.649,153.886,225.363,129.166z M167.67,119.953
	c0.156,3.966-2.908,6.81-7.042,7.047c-4.071,0.161-6.936-2.656-7.158-6.518c-0.148-3.861,2.788-6.7,6.854-7.036
	C164.492,113.177,167.514,115.989,167.67,119.953z M153.175,143.588c-1.032-2.062-0.148-3.865,1.965-4.828
	c1.68-0.834,4.049-0.072,5.109,2.012c2.975,6.368,9.26,10.631,16.699,10.784c7.645,0.157,14.611-3.821,17.987-10.27
	c1.595-2.056,4.07-3.062,6.302-2.208c2.161,0.898,3.359,3.157,2.427,5.134c-5.313,9.876-15.484,15.346-26.434,14.833
	C166.697,158.66,157.194,152.38,153.175,143.588z M202.161,119.363c0.176,4.218-3.897,7.401-7.957,7.496
	c-4.594,0.172-7.824-2.817-8.074-6.918c-0.167-4.099,3.143-7.119,7.731-7.483C198.525,112.165,202.073,115.693,202.161,119.363z"/>
</svg>